<svg xmlns="http://www.w3.org/2000/svg" viewBox="0 0 764.64 994.24"><defs><style>.cls-1{fill:#3b3744;}.cls-2{fill:#f0f0f0;}.cls-3{fill:#fff;}.cls-10,.cls-4{fill:none;stroke-linecap:round;stroke-linejoin:round;stroke-width:2px;}.cls-4{stroke:#1b3c87;}.cls-5{fill:#eaf0ff;}.cls-6{fill:#d8dfff;}.cls-7{fill:#b2c3fb;}.cls-8{fill:#46dbc9;}.cls-9{fill:#ecc953;}.cls-10{stroke:#b6c6fc;}</style></defs><title>drawkit-grape-pack-illustration-12</title><g id="Layer_2" data-name="Layer 2"><g id="vector"><path class="cls-1" d="M113.52,648.59c-.85,8.29-16.94,127.88-20.27,156.86S68.31,910,62.14,920.48c6.45,4,25.57,14.68,25.57,14.68s58.28-89.8,60.66-98.35,12.51-49.89,12.51-49.89L146.94,640.59Z"/><path class="cls-2" d="M510.68,180.67c59.06,50.44,104.61,116,102.6,178.75s-51.44,123.14-94.12,178.17S440.42,642.05,386.83,675.53,262.25,726,204.35,705.41,101.61,626.82,73.16,565.32,32.21,438.73,54.63,391.75s79.74-76,127.59-128.31S268.57,135.13,324,115,451.77,130.24,510.68,180.67Z"/><path class="cls-3" d="M106.18,497c-3.92-5.52-12.81-29.3-12.81-34s27-98.8,28.7-106.8,1.65-30.63,0-38.08c.72-2.78,2.63-3.68,3.13-2,1.31,1.06,8.76,5.53,8.76,5.53s17.42,24,13.53,29.42a88.08,88.08,0,0,0-8.33,13.68c-.94,6.05-14.69,84-14,89s14.54,30.21,14.9,32C137.07,487.34,107.94,498.85,106.18,497Z"/><path class="cls-4" d="M104.75,400.9c6.41-23.07,12.56-45,13.32-48.7,1.65-8,1.65-30.63,0-38.08.72-2.78,2.63-3.68,3.13-2"/><path class="cls-4" d="M102.18,493c-3.92-5.52-12.81-29.3-12.81-34,0-1.77,3.88-16.38,8.79-34.28"/><rect class="cls-5" x="121.32" y="54.1" width="489.79" height="437.01" transform="translate(-56.34 99.77) rotate(-14.42)"/><rect class="cls-6" x="127.02" y="99.16" width="127.8" height="437.01" transform="translate(-73.08 57.54) rotate(-14.42)"/><circle class="cls-5" cx="152.28" cy="167.37" r="39.59"/><rect class="cls-5" x="121.24" y="226.88" width="96.05" height="9.23" transform="translate(-52.31 49.44) rotate(-14.42)"/><rect class="cls-5" x="126.78" y="248.41" width="96.05" height="9.23" transform="translate(-57.5 51.49) rotate(-14.42)"/><circle class="cls-7" cx="328.21" cy="264.86" r="11"/><rect class="cls-6" x="351.13" y="230.94" width="182.06" height="9.23" transform="translate(-44.73 117.52) rotate(-14.42)"/><rect class="cls-3" x="290.8" y="77.92" width="219.82" height="144.43" transform="translate(-24.76 104.5) rotate(-14.42)"/><circle class="cls-7" cx="379.08" cy="462.73" r="11"/><rect class="cls-6" x="402" y="428.82" width="182.06" height="9.23" transform="translate(-92.39 136.41) rotate(-14.42)"/><rect class="cls-3" x="341.67" y="275.79" width="219.82" height="144.43" transform="translate(-72.43 123.4) rotate(-14.42)"/><polyline class="cls-3" points="57.25 928.22 47.4 945.57 35.07 955.07 68.77 994.24 96.42 994.24 78.41 966.44 81.45 941.99"/><polyline class="cls-3" points="183.85 955.86 188.69 973.4 185.28 994.24 259.68 994.24 216 968.45 217.06 955.86"/><path class="cls-4" d="M92.17,769c-1.74,13.58-3.16,24.86-3.92,31.45-3.32,29-24.94,104.58-31.11,115,6.45,4,25.57,14.68,25.57,14.68s58.28-89.8,60.66-98.35,12.51-49.89,12.51-49.89L141.94,635.59l-33.42,8c-.42,4.15-4.66,36.12-9.2,70.67"/><line class="cls-4" x1="171.36" y1="943.77" x2="220.67" y2="943.77"/><line class="cls-4" x1="171.36" y1="951.86" x2="220.67" y2="951.86"/><polyline class="cls-4" points="246.6 990.24 255.68 990.24 212 964.45 213.06 951.86"/><polyline class="cls-4" points="179.85 951.86 184.69 969.4 181.28 990.24 224.91 990.24"/><line class="cls-4" x1="50.81" y1="912.12" x2="85.64" y2="931.93"/><line class="cls-4" x1="47.35" y1="920.86" x2="82.19" y2="940.68"/><polyline class="cls-4" points="76.79 966.12 74.41 962.44 77.45 937.99"/><polyline class="cls-4" points="46.62 935.89 43.4 941.57 31.07 951.07 64.77 990.24 92.42 990.24 85.28 979.22"/><path class="cls-1" d="M128.26,655.84c0,5,4.16,64.44,18.4,111.5,9.41,44.94,36.7,181.43,36.7,181.43h34.7l-12.49-304.9Z"/><path class="cls-4" d="M160.88,856.69c9.08,45.08,17.48,87.08,17.48,87.08h34.7l-12.49-304.9-77.31,12c0,5,4.16,64.44,18.4,111.5,2.14,10.21,5.2,25.14,8.65,42.13"/><path class="cls-3" d="M247.09,521.38c8,4.24,33.46,15.75,36.53,15.75s47-14.5,49.32-18.93,4.72-16.23,8.74-17.41,1.75,9.2,1.75,9.2c2.38-.78,39.95-10.57,39.78-10.37,1,5.38-19.33,20.63-21.45,21.18C351.31,532.52,286.24,569,283.41,569s-46.79-12-49.56-13C234.4,551.91,243.29,524.27,247.09,521.38Z"/><path class="cls-4" d="M138.7,355.79c2.51-3.36,5.29-7,5.16-12.19"/><path class="cls-4" d="M135.38,480c-2-6.08-13.87-25.84-14.18-31-.3-5,11.52-74.88,13.66-85.65"/><path class="cls-8" d="M140.76,552.06c-13.83,6-45-43.72-38.22-51.63,9.48-10.9,36.18-19.29,45.33-15.76C152.49,491,164.28,541.91,140.76,552.06Z"/><path class="cls-4" d="M136.76,548.06c-13.83,6-45-43.72-38.22-51.63,9.48-10.9,36.18-19.29,45.33-15.76C148.49,487,160.28,537.91,136.76,548.06Z"/><path class="cls-4" d="M266.25,562.61c6.07,1.41,11,2.38,12.66,2.38,5.19,0,66.08-35.16,78.35-47.9,11.81-6.85,19.24-14.5,21.95-20.39"/><path class="cls-4" d="M231.37,553.16c2.16.82,7.17,2.3,13.19,3.94"/><path class="cls-4" d="M306.7,524.55c10.89-4,21.14-8.27,22.24-10.35,2.36-4.43,4.72-16.23,8.74-17.41s1.75,9.2,1.75,9.2"/><path class="cls-4" d="M243.09,517.38c8,4.24,33.46,15.75,36.53,15.75a35.6,35.6,0,0,0,5.5-1.37"/><path class="cls-8" d="M169,492.57c46.09,0,49.63,91.47,36.87,162.37-12.41,5-82.6,7.09-94.3-4.26C107.32,635.09,92.19,492.58,169,492.57Z"/><path class="cls-4" d="M107.5,552.07c6.52-33.78,22.43-63.5,57.5-63.5,31.56,0,43.17,42.9,43.26,92.71"/><path class="cls-4" d="M110.3,648.59a12.13,12.13,0,0,1-2.73-1.91c-1.48-5.41-4.26-26.09-4.06-50.8"/><path class="cls-4" d="M206.85,613.35c-1.09,12.76-2.8,25.47-5,37.59-7,2.78-32.07,4.67-54.86,3.8"/><path class="cls-8" d="M176.74,512.41c4.31-15.58,67.77-8.49,69.9,2.5,2.84,15.24-8.15,43.25-17.37,48.56C220.76,563.12,169.4,538.93,176.74,512.41Z"/><path class="cls-4" d="M239,506.86c2.09,1.25,3.4,2.62,3.68,4.05,2.84,15.24-8.15,43.25-17.37,48.56-2.72-.11-19.49-7.55-27.63-11.82"/><path class="cls-4" d="M172.07,514.91a19.6,19.6,0,0,1,.67-6.5c2.72-9.82,28.9-10.64,48.44-7.15"/><path class="cls-3" d="M172.4,502.9c0,4.07-25.8,4.59-25.8,0V466.3h25.8Z"/><path class="cls-4" d="M168.4,487.13V498.9"/><path class="cls-4" d="M157.79,502.08c-7.11.36-15.19-.61-15.19-3.18V462.3h25.8v16.43"/><ellipse class="cls-3" cx="165.48" cy="439.59" rx="26.38" ry="34.69"/><path class="cls-4" d="M179.64,461.94c-4.61,5.2-10.61,8.34-17.16,8.34-14.57,0-26.39-15.53-26.39-34.69s11.82-34.69,26.39-34.69,26.38,15.53,26.38,34.69A42.92,42.92,0,0,1,185,453.73"/><path class="cls-9" d="M134.53,443.37c0-27.63,9.17-54.08,18.41-54.08s4.15,13.11,4.15,13.11c3.84-7.68,15.71-19.55,20.9-19.55s6.45,8,1.13,16.16a26.31,26.31,0,0,1,18.2-8.7c6,0,6.78,7.12,6.78,14.13,0,12.39-26,31.41-28.93,34.69-.23,4.07-3.62,37.18-11.87,37.18S134.53,474.28,134.53,443.37Z"/><path class="cls-4" d="M168.22,462.9c-1.76,5.4-4.05,9.41-6.92,9.41-4.64,0-13.16-.64-19.73-6.7"/><path class="cls-4" d="M200,407.34c-4.81,9-16.8,19.07-23.11,24.44"/><path class="cls-4" d="M188.48,387.58a22.07,22.07,0,0,1,6.84-1.27c5,0,6.37,4.95,6.69,10.65"/><path class="cls-4" d="M132.57,436c.7-26.38,9.51-50.73,18.37-50.73,9.23,0,4.15,13.11,4.15,13.11,3.84-7.68,15.71-19.55,20.9-19.55s6.45,8,1.13,16.16"/><circle class="cls-3" cx="176.37" cy="443.41" r="8.39"/><path class="cls-4" d="M166,442.3a8.7,8.7,0,0,1,0-.89A8.38,8.38,0,0,1,178.37,434"/><path class="cls-4" d="M176.75,449.46a8.21,8.21,0,0,1-2.38.35,8.35,8.35,0,0,1-5.79-2.32"/><polygon class="cls-10" points="658.41 108.74 603.17 108.74 630.79 156.57 658.41 108.74"/><rect class="cls-10" x="11.68" y="170.04" width="23.52" height="46.38" transform="translate(108.38 18.09) rotate(32.79)"/><rect class="cls-5" x="337.81" y="619.68" width="135.65" height="254.84" transform="translate(279.65 -93.63) rotate(19.98)"/><circle class="cls-10" cx="379.08" cy="608.9" r="23.16"/><polygon class="cls-5" points="691.83 491.06 687.62 577.56 764.64 537.95 691.83 491.06"/></g></g></svg>