<svg width="129" height="31" viewBox="0 0 129 31" fill="none" xmlns="http://www.w3.org/2000/svg">
<path d="M16.5146 18.9575C16.5146 18.4741 16.4395 18.0444 16.2891 17.6685C16.1494 17.2925 15.897 16.9487 15.5317 16.6372C15.1665 16.3257 14.6509 16.0249 13.9849 15.7349C13.3296 15.4341 12.4917 15.1279 11.4712 14.8164C10.354 14.4727 9.32275 14.0913 8.37744 13.6724C7.44287 13.2427 6.62646 12.7485 5.92822 12.1899C5.22998 11.6206 4.6875 10.9707 4.30078 10.2402C3.91406 9.49902 3.7207 8.64502 3.7207 7.67822C3.7207 6.72217 3.91943 5.85205 4.31689 5.06787C4.7251 4.28369 5.2998 3.60693 6.04102 3.0376C6.79297 2.45752 7.6792 2.01172 8.69971 1.7002C9.72021 1.37793 10.8481 1.2168 12.0835 1.2168C13.8237 1.2168 15.3223 1.53906 16.5791 2.18359C17.8467 2.82812 18.8188 3.69287 19.4956 4.77783C20.1831 5.86279 20.5269 7.06055 20.5269 8.37109H16.5146C16.5146 7.59766 16.3481 6.91553 16.0151 6.32471C15.6929 5.72314 15.1987 5.25049 14.5327 4.90674C13.8774 4.56299 13.0449 4.39111 12.0352 4.39111C11.0791 4.39111 10.2842 4.53613 9.65039 4.82617C9.0166 5.11621 8.54395 5.5083 8.23242 6.00244C7.9209 6.49658 7.76514 7.05518 7.76514 7.67822C7.76514 8.11865 7.86719 8.52148 8.07129 8.88672C8.27539 9.24121 8.58691 9.57422 9.00586 9.88574C9.4248 10.1865 9.95117 10.4712 10.585 10.7397C11.2188 11.0083 11.9653 11.2661 12.8247 11.5132C14.1245 11.8999 15.2578 12.3296 16.2246 12.8022C17.1914 13.2642 17.9971 13.7905 18.6416 14.3813C19.2861 14.9722 19.7695 15.6436 20.0918 16.3955C20.4141 17.1367 20.5752 17.98 20.5752 18.9253C20.5752 19.9136 20.3765 20.8052 19.979 21.6001C19.5815 22.3843 19.0122 23.0557 18.271 23.6143C17.5405 24.1621 16.6597 24.5864 15.6284 24.8872C14.6079 25.1772 13.4692 25.3223 12.2124 25.3223C11.0845 25.3223 9.97266 25.1719 8.87695 24.8711C7.79199 24.5703 6.80371 24.1138 5.91211 23.5015C5.02051 22.8784 4.31152 22.105 3.78516 21.1812C3.25879 20.2466 2.99561 19.1562 2.99561 17.9102H7.04004C7.04004 18.6729 7.16895 19.3228 7.42676 19.8599C7.69531 20.397 8.06592 20.8374 8.53857 21.1812C9.01123 21.5142 9.55908 21.7612 10.1821 21.9224C10.8159 22.0835 11.4927 22.1641 12.2124 22.1641C13.1577 22.1641 13.9473 22.0298 14.5811 21.7612C15.2256 21.4927 15.709 21.1167 16.0312 20.6333C16.3535 20.1499 16.5146 19.5913 16.5146 18.9575ZM27.6006 0.25V25H23.7334V0.25H27.6006ZM26.9238 15.6382L25.667 15.6221C25.6777 14.4189 25.8442 13.3071 26.1665 12.2866C26.4995 11.2661 26.9614 10.3799 27.5522 9.62793C28.1538 8.86523 28.8735 8.27979 29.7114 7.87158C30.5493 7.45264 31.4785 7.24316 32.499 7.24316C33.3584 7.24316 34.1318 7.36133 34.8193 7.59766C35.5176 7.83398 36.1191 8.21533 36.624 8.7417C37.1289 9.25732 37.5103 9.93408 37.7681 10.772C38.0366 11.5991 38.1709 12.6089 38.1709 13.8013V25H34.2715V13.769C34.2715 12.9312 34.1479 12.2651 33.9009 11.771C33.6646 11.2769 33.3154 10.9224 32.8535 10.7075C32.3916 10.4819 31.8276 10.3691 31.1616 10.3691C30.4634 10.3691 29.8457 10.5088 29.3086 10.7881C28.7822 11.0674 28.3418 11.4487 27.9873 11.9321C27.6328 12.4155 27.3643 12.9741 27.1816 13.6079C27.0098 14.2417 26.9238 14.9185 26.9238 15.6382ZM41.3613 16.4761V16.1055C41.3613 14.8486 41.5439 13.6831 41.9092 12.6089C42.2744 11.5239 42.8008 10.584 43.4883 9.78906C44.1865 8.9834 45.0352 8.36035 46.0342 7.91992C47.0439 7.46875 48.1826 7.24316 49.4502 7.24316C50.7285 7.24316 51.8672 7.46875 52.8662 7.91992C53.876 8.36035 54.73 8.9834 55.4282 9.78906C56.1265 10.584 56.6582 11.5239 57.0234 12.6089C57.3887 13.6831 57.5713 14.8486 57.5713 16.1055V16.4761C57.5713 17.7329 57.3887 18.8984 57.0234 19.9727C56.6582 21.0469 56.1265 21.9868 55.4282 22.7925C54.73 23.5874 53.8813 24.2104 52.8823 24.6616C51.8833 25.1021 50.75 25.3223 49.4824 25.3223C48.2041 25.3223 47.0601 25.1021 46.0503 24.6616C45.0513 24.2104 44.2026 23.5874 43.5044 22.7925C42.8062 21.9868 42.2744 21.0469 41.9092 19.9727C41.5439 18.8984 41.3613 17.7329 41.3613 16.4761ZM45.2446 16.1055V16.4761C45.2446 17.2603 45.3252 18.0015 45.4863 18.6997C45.6475 19.3979 45.8999 20.0103 46.2437 20.5366C46.5874 21.063 47.0278 21.4766 47.5649 21.7773C48.1021 22.0781 48.7412 22.2285 49.4824 22.2285C50.2021 22.2285 50.8252 22.0781 51.3516 21.7773C51.8887 21.4766 52.3291 21.063 52.6729 20.5366C53.0166 20.0103 53.269 19.3979 53.4302 18.6997C53.6021 18.0015 53.688 17.2603 53.688 16.4761V16.1055C53.688 15.332 53.6021 14.6016 53.4302 13.9141C53.269 13.2158 53.0112 12.5981 52.6567 12.061C52.313 11.5239 51.8726 11.105 51.3354 10.8042C50.8091 10.4927 50.1807 10.3369 49.4502 10.3369C48.7197 10.3369 48.0859 10.4927 47.5488 10.8042C47.0225 11.105 46.5874 11.5239 46.2437 12.061C45.8999 12.5981 45.6475 13.2158 45.4863 13.9141C45.3252 14.6016 45.2446 15.332 45.2446 16.1055ZM64.7256 10.8848V25H60.8423V7.56543H64.5483L64.7256 10.8848ZM70.0591 7.45264L70.0269 11.062C69.7905 11.019 69.5327 10.9868 69.2534 10.9653C68.9849 10.9438 68.7163 10.9331 68.4478 10.9331C67.7817 10.9331 67.1963 11.0298 66.6914 11.2231C66.1865 11.4058 65.7622 11.6743 65.4185 12.0288C65.0854 12.3726 64.8276 12.7915 64.645 13.2856C64.4624 13.7798 64.355 14.333 64.3228 14.9453L63.4365 15.0098C63.4365 13.9141 63.5439 12.8989 63.7588 11.9644C63.9736 11.0298 64.2959 10.208 64.7256 9.49902C65.166 8.79004 65.7139 8.23682 66.3691 7.83936C67.0352 7.44189 67.8032 7.24316 68.6733 7.24316C68.9097 7.24316 69.1621 7.26465 69.4307 7.30762C69.71 7.35059 69.9194 7.39893 70.0591 7.45264ZM81.29 7.56543V10.4014H71.4609V7.56543H81.29ZM74.2969 3.29541H78.1802V20.1821C78.1802 20.7192 78.2554 21.1328 78.4058 21.4229C78.5669 21.7021 78.7871 21.8901 79.0664 21.9868C79.3457 22.0835 79.6733 22.1318 80.0493 22.1318C80.3179 22.1318 80.5757 22.1157 80.8228 22.0835C81.0698 22.0513 81.2686 22.019 81.4189 21.9868L81.4351 24.9517C81.1128 25.0483 80.7368 25.1343 80.3071 25.2095C79.8882 25.2847 79.4048 25.3223 78.8569 25.3223C77.9653 25.3223 77.1758 25.1665 76.4883 24.855C75.8008 24.5327 75.2637 24.0117 74.877 23.292C74.4902 22.5723 74.2969 21.6162 74.2969 20.4238V3.29541Z" fill="black"/>
<path d="M88.9922 1.53906V25H84.9478V1.53906H88.9922ZM97.4839 11.2876V25H93.6006V7.56543H97.2583L97.4839 11.2876ZM96.791 15.6382L95.5342 15.6221C95.5449 14.3867 95.7168 13.2534 96.0498 12.2222C96.3936 11.1909 96.8662 10.3047 97.4678 9.56348C98.0801 8.82227 98.8105 8.25293 99.6592 7.85547C100.508 7.44727 101.453 7.24316 102.495 7.24316C103.333 7.24316 104.09 7.36133 104.767 7.59766C105.455 7.82324 106.04 8.19385 106.523 8.70947C107.018 9.2251 107.394 9.89648 107.651 10.7236C107.909 11.54 108.038 12.5444 108.038 13.7368V25H104.139V13.7207C104.139 12.8828 104.015 12.2222 103.768 11.7388C103.532 11.2446 103.183 10.8955 102.721 10.6914C102.27 10.4766 101.706 10.3691 101.029 10.3691C100.363 10.3691 99.7666 10.5088 99.2402 10.7881C98.7139 11.0674 98.2681 11.4487 97.9028 11.9321C97.5483 12.4155 97.2744 12.9741 97.0811 13.6079C96.8877 14.2417 96.791 14.9185 96.791 15.6382ZM115.917 0.25V25H112.018V0.25H115.917ZM126.746 7.56543L119.156 15.9766L114.999 20.2305L113.984 16.9434L117.126 13.0601L122.057 7.56543H126.746ZM122.895 25L117.239 16.8145L119.688 14.0913L127.39 25H122.895Z" fill="#6EE7B7"/>
<rect x="99" y="28" width="23" height="3" fill="#6EE7B7"/>
</svg>
