<svg width="77" height="32" viewBox="0 0 77 32" fill="none" xmlns="http://www.w3.org/2000/svg">
<circle cx="15" cy="15" r="15" fill="#6EE7B7"/>
<path d="M37.7412 2.53906V26H33.6968V2.53906H37.7412ZM46.2329 12.2876V26H42.3496V8.56543H46.0073L46.2329 12.2876ZM45.54 16.6382L44.2832 16.6221C44.2939 15.3867 44.4658 14.2534 44.7988 13.2222C45.1426 12.1909 45.6152 11.3047 46.2168 10.5635C46.8291 9.82227 47.5596 9.25293 48.4082 8.85547C49.2568 8.44727 50.2021 8.24316 51.2441 8.24316C52.082 8.24316 52.8394 8.36133 53.5161 8.59766C54.2036 8.82324 54.7891 9.19385 55.2725 9.70947C55.7666 10.2251 56.1426 10.8965 56.4004 11.7236C56.6582 12.54 56.7871 13.5444 56.7871 14.7368V26H52.8877V14.7207C52.8877 13.8828 52.7642 13.2222 52.5171 12.7388C52.2808 12.2446 51.9316 11.8955 51.4697 11.6914C51.0186 11.4766 50.4546 11.3691 49.7778 11.3691C49.1118 11.3691 48.5156 11.5088 47.9893 11.7881C47.4629 12.0674 47.0171 12.4487 46.6519 12.9321C46.2974 13.4155 46.0234 13.9741 45.8301 14.6079C45.6367 15.2417 45.54 15.9185 45.54 16.6382ZM64.6665 1.25V26H60.7671V1.25H64.6665ZM75.4946 8.56543L67.9053 16.9766L63.748 21.2305L62.7329 17.9434L65.875 14.0601L70.8057 8.56543H75.4946ZM71.6436 26L65.9878 17.8145L68.437 15.0913L76.1392 26H71.6436Z" fill="#6EE7B7"/>
<rect x="48" y="29" width="23" height="3" fill="#6EE7B7"/>
</svg>
